<svg width="64" height="57" viewBox="0 0 64 57" fill="none" xmlns="http://www.w3.org/2000/svg">
	<path d="M12.7047 12.0074H64V0H12.794C5.72839 0 0 6.04756 0 13.5069C0 20.9662 5.72839 27.0138 12.794 27.0138H21.5136C22.2457 27.0138 22.8399 27.641 22.8399 28.4139C22.8399 29.1868 22.2457 29.8141 21.5136 29.8141H0.0376249V41.8215L21.5262 41.7586C25.806 41.7454 29.5842 39.5028 31.8809 36.0735C34.1384 39.6749 37.9965 42.0632 42.3908 42.1012L51.2938 42.179C52.0259 42.1856 52.6153 42.8129 52.6153 43.5858C52.6153 44.362 52.018 44.9926 51.2828 44.9926H0.0172448V57H51.1918C58.2575 57 63.9859 50.9524 63.9859 43.4931C63.9859 36.0338 58.2575 29.9862 51.1918 29.9862H42.4723C41.7402 29.9862 41.146 29.359 41.146 28.5861C41.146 27.8132 41.7402 27.1859 42.4723 27.1859H63.9781V15.1785L42.4597 15.2414C38.1799 15.2546 34.4017 17.4972 32.105 20.9265C29.8475 17.3251 25.9894 14.9368 21.5951 14.8988L12.6921 14.821C11.96 14.8144 11.3706 14.1871 11.3706 13.4142C11.3706 12.6413 11.9679 12.0074 12.7031 12.0074H12.7047Z" fill="#A620FF"/>
</svg>