<svg width="87" height="87" viewBox="0 0 87 87" fill="none" xmlns="http://www.w3.org/2000/svg">
<g clip-path="url(#clip0_5_146)">
<path d="M0 84.0733V9.58708C3.6533 13.0032 6.7847 15.8358 9.80886 18.7822C12.4184 21.323 14.8849 24.0061 17.4372 26.6038C20.1396 29.3509 21.2049 29.3509 23.9859 26.5184C29.877 20.5045 35.7466 14.4764 42.0666 8C48.2221 14.512 53.913 20.5259 59.8826 26.8386C40.3722 46.0189 20.6329 65.4339 0.886515 84.849L0 84.0733Z" fill="white"/>
<path d="M27.3962 72.4513C46.8423 53.3493 66.553 33.9769 87 13.8857V89.2189C85.7918 88.2937 84.9768 87.7884 84.2976 87.1407C79.1 82.1588 73.8381 77.2339 68.7979 72.0954C66.8961 70.1596 65.8952 70.4443 64.1151 72.252C58.6601 77.789 52.8835 83.0129 47.4286 88.5428C45.5912 90.4074 44.5116 90.5213 42.7172 88.5641C37.8127 83.2193 32.7224 78.031 27.389 72.4513H27.3962Z" fill="white"/>
</g>
<defs>
<clipPath id="clip0_5_146">
<rect width="87" height="87" fill="white"/>
</clipPath>
</defs>
</svg>
