<svg width="87" height="87" viewBox="0 0 87 87" fill="none" xmlns="http://www.w3.org/2000/svg">
<g clip-path="url(#clip0_5_135)">
<path d="M12.1628 48.5698H0.356238C-2.68121 31.8803 14.4489 13.32 34.5906 11.0943C55.8981 8.73963 75.3339 25.8936 75.988 48.2537H63.7734C63.3395 46.8473 62.7437 45.099 62.245 43.3184C59.0133 31.79 49.5965 24.4614 37.9649 24.4356C26.3073 24.4098 16.897 31.6352 13.5422 43.2088C13.0759 44.8216 12.7068 46.4538 12.1628 48.5827V48.5698Z" fill="white"/>
<path d="M63.8316 87.0516C58.6246 70.2783 50.4448 62.8916 37.6345 63.0142C25.0573 63.1367 17.0395 70.5492 12.0656 87.0709H0.0388491C-0.893756 67.3043 16.4307 50.2665 37.1811 49.9761C58.5792 49.6729 76.1433 66.2204 75.8519 87.058H63.8381L63.8316 87.0516Z" fill="white"/>
</g>
<defs>
<clipPath id="clip0_5_135">
<rect width="87" height="87" fill="white"/>
</clipPath>
</defs>
</svg>
